<svg width="182" height="28" viewBox="0 0 182 28" fill="none" xmlns="http://www.w3.org/2000/svg">
<path d="M29.2742 21.6661C30.6423 21.6661 31.7516 20.5466 31.7516 19.1681C31.7516 17.7864 30.6423 16.6681 29.2742 16.6683C27.9048 16.6683 26.7955 17.7864 26.7955 19.1681C26.7955 20.5466 27.9046 21.6661 29.2742 21.6661Z" fill="#282955"/>
<path d="M9.01029 9.67922H28.0673V12.1778H9.01029V9.67922Z" fill="#282955"/>
<path fill-rule="evenodd" clip-rule="evenodd" d="M29.2742 28H2.48031C1.08854 28 0 26.9027 0 25.5015V8.83333C0 3.63228 3.17303 0 7.71563 0H34.5104C35.924 0 36.9882 1.07314 36.9882 2.49836V19.1679C36.9882 24.3675 33.8148 28 29.2742 28ZM7.71563 2.10153C4.29641 2.10153 2.08648 4.7429 2.08648 8.83333V25.5015C2.08648 25.7305 2.25108 25.8981 2.48031 25.8981H29.2742C32.6923 25.8981 34.9034 23.2562 34.9034 19.1681V2.49836C34.9034 2.23963 34.7667 2.10135 34.5104 2.10135L7.71563 2.10153Z" fill="#282955"/>
<path fill-rule="evenodd" clip-rule="evenodd" d="M57.3132 2.38901C57.2445 2.20015 57.0652 2.07169 56.8633 2.07169H55.9924C55.7904 2.07169 55.6113 2.20015 55.5438 2.38901L48.2059 25.2447C48.1544 25.3903 48.1748 25.5555 48.2661 25.6814C48.3548 25.8099 48.4995 25.8845 48.6573 25.8845H49.6513C49.8537 25.8845 50.0328 25.7562 50.1016 25.5637L52.4998 18.1801H60.3528L62.6909 25.5746C62.758 25.7682 62.9384 25.8968 63.1417 25.8968H64.2055C64.4687 25.8968 64.6826 25.6814 64.6826 25.4185C64.6826 25.333 64.6621 25.2555 64.6233 25.1874L57.3132 2.38901ZM56.4281 5.75655C57.018 7.66994 58.2418 11.621 58.2418 11.621L59.7633 16.3488H53.1017L54.9858 10.3899L56.4281 5.75655Z" fill="#282955"/>
<path d="M78.3052 22.4516C78.2219 22.3475 78.0994 22.2851 77.9664 22.2767C77.8363 22.268 77.7044 22.3148 77.6089 22.4052C76.7978 23.1716 75.4728 24.0832 73.7703 24.0832C70.6712 24.0832 68.5895 21.4936 68.5895 17.6392C68.5895 13.8681 70.7688 11.1306 73.7703 11.1306C74.9653 11.1306 76.0473 11.6252 77.173 12.6861C77.2671 12.774 77.3945 12.8175 77.5189 12.8146C77.6469 12.8108 77.7681 12.7531 77.8544 12.6587L78.4776 11.9733C78.6513 11.7787 78.6394 11.4793 78.4486 11.3008C77.4589 10.3694 76.0315 9.30004 73.7705 9.30004C71.8408 9.30004 70.0614 10.0873 68.7636 11.5158C67.3746 13.0418 66.6403 15.1587 66.6403 17.6394C66.6403 22.5893 69.5053 25.9161 73.7705 25.9161C75.5618 25.9161 77.258 25.2032 78.8151 23.7977C79.0047 23.6261 79.0252 23.3346 78.8657 23.137L78.3052 22.4516Z" fill="#282955"/>
<path d="M92.3747 22.2767C92.5076 22.2851 92.6302 22.3475 92.7136 22.4516L93.2739 23.137C93.4357 23.3346 93.413 23.6261 93.2233 23.7977C91.6662 25.2032 89.969 25.9161 88.1802 25.9161C83.9153 25.9161 81.0483 22.5893 81.0483 17.6394C81.0483 15.1587 81.784 13.0418 83.1717 11.5158C84.4722 10.0873 86.2479 9.30004 88.1802 9.30004C90.4405 9.30004 91.8675 10.3694 92.8587 11.3008C93.0483 11.4793 93.0603 11.7787 92.885 11.9733L92.2623 12.6587C92.1767 12.7531 92.0566 12.8108 91.9286 12.8146C91.8028 12.8175 91.6768 12.774 91.5834 12.6861C90.456 11.6252 89.3741 11.1306 88.1802 11.1306C85.1781 11.1306 83 13.8681 83 17.6392C83 21.4936 85.0795 24.0832 88.1802 24.0832C89.8827 24.0832 91.2066 23.1716 92.0171 22.4052C92.1145 22.3148 92.2441 22.268 92.3747 22.2767Z" fill="#282955"/>
<path d="M104.499 9.6623C103.863 9.34316 103.311 9.29985 102.856 9.29985C101.406 9.29985 100.084 10.0648 98.9814 11.5275L98.92 10.1314C98.9076 9.87573 98.6971 9.67394 98.4425 9.67394H97.6343C97.3696 9.67394 97.1567 9.88755 97.1567 10.1525V25.4272C97.1567 25.6901 97.3696 25.9058 97.6343 25.9058H98.5671C98.8297 25.9058 99.0447 25.6901 99.0447 25.4272V14.8006C99.9876 12.5069 101.328 11.193 102.731 11.193C103.218 11.193 103.412 11.2398 103.869 11.4132C103.994 11.46 104.132 11.4512 104.252 11.3926C104.371 11.3319 104.46 11.2242 104.497 11.0961L104.745 10.2218C104.808 10 104.704 9.76419 104.499 9.6623Z" fill="#282955"/>
<path fill-rule="evenodd" clip-rule="evenodd" d="M113.316 9.29967C109.979 9.29967 106.434 12.2223 106.434 17.639C106.434 22.5109 109.417 25.9158 113.688 25.9158C116.079 25.9158 117.439 25.0833 118.531 24.4149L118.538 24.411C118.755 24.2773 118.829 23.998 118.709 23.7744L118.274 22.9627C118.209 22.8417 118.094 22.7549 117.96 22.7236C117.827 22.693 117.685 22.7222 117.575 22.8024C116.369 23.6776 115.153 24.083 113.751 24.083C110.676 24.083 108.567 21.7065 108.396 18.1179H118.848C119.082 18.1179 119.281 17.9487 119.32 17.7167C119.388 17.304 119.388 16.9665 119.388 16.6399C119.388 12.044 117.117 9.29967 113.316 9.29967ZM113.316 11.1305C115.894 11.1305 117.365 12.9565 117.492 16.2866H108.44C108.87 13.2249 110.823 11.1305 113.316 11.1305Z" fill="#282955"/>
<path fill-rule="evenodd" clip-rule="evenodd" d="M134.513 2.06295H135.445C135.707 2.06295 135.921 2.27802 135.921 2.54385V25.4374C135.921 25.7011 135.707 25.9159 135.445 25.9159H134.637C134.385 25.9159 134.177 25.7183 134.161 25.4669L134.095 24.0453C132.635 25.2884 131.084 25.9159 129.476 25.9159C125.324 25.9159 122.843 22.8213 122.843 17.6392C122.843 12.8071 125.842 9.29985 129.974 9.29985C131.586 9.29985 132.775 9.80459 134.075 10.6958L134.036 8.85426V2.54403C134.036 2.27802 134.249 2.06295 134.513 2.06295ZM134.036 12.9265C132.565 11.6537 131.36 11.1305 129.911 11.1305C127.042 11.1305 124.794 13.9896 124.794 17.639C124.794 21.6749 126.568 24.083 129.538 24.083C130.995 24.083 132.387 23.3601 134.036 21.7429V12.9265Z" fill="#282955"/>
<path d="M139.696 5.28639C139.696 4.3952 140.342 3.74836 141.231 3.74836C142.12 3.74836 142.766 4.39501 142.766 5.28639C142.766 6.1512 142.093 6.82751 141.231 6.82751C140.372 6.82751 139.696 6.1512 139.696 5.28639Z" fill="#282955"/>
<path d="M141.697 9.67394H140.764C140.501 9.67394 140.288 9.88755 140.288 10.1525V25.4374C140.288 25.7011 140.501 25.9159 140.764 25.9159H141.697C141.961 25.9159 142.175 25.7011 142.175 25.4374V10.1525C142.175 9.88755 141.961 9.67394 141.697 9.67394Z" fill="#282955"/>
<path fill-rule="evenodd" clip-rule="evenodd" d="M153.174 9.29967C151.696 9.29967 150.089 9.93977 148.388 11.2052L148.429 9.21816V2.54385C148.429 2.27784 148.214 2.06277 147.951 2.06277H147.017C146.754 2.06277 146.54 2.27784 146.54 2.54385V25.063C146.54 25.3262 146.754 25.5415 147.017 25.5415H147.826C148.075 25.5415 148.28 25.3508 148.303 25.1028L148.36 24.4112C149.775 25.3732 151.271 25.9159 152.55 25.9159C157.19 25.9159 159.618 21.6263 159.618 17.3892C159.619 12.2467 157.269 9.29967 153.174 9.29967ZM152.614 24.083C152.135 24.083 150.452 23.9512 148.429 22.2807V13.4869C150.198 11.9232 151.773 11.1305 153.11 11.1305C156.878 11.1305 157.669 14.534 157.669 17.389C157.669 21.3317 155.591 24.083 152.614 24.083Z" fill="#282955"/>
<path d="M166.45 24.3934C166.392 24.1403 166.144 23.9791 165.89 24.03C165.627 24.083 165.532 24.083 165.425 24.083C165.31 24.083 165.28 23.7869 165.28 23.629V2.54385C165.28 2.27784 165.066 2.06277 164.803 2.06277H163.87C163.607 2.06277 163.393 2.27784 163.393 2.54385V23.4403C163.393 25.4858 164.462 25.9158 165.363 25.9158C165.749 25.9158 165.979 25.8568 166.198 25.7977L166.287 25.7773C166.538 25.7127 166.695 25.46 166.636 25.2051L166.45 24.3934Z" fill="#282955"/>
<path fill-rule="evenodd" clip-rule="evenodd" d="M175.927 9.29967C172.593 9.29967 169.048 12.2223 169.048 17.639C169.048 22.5109 172.031 25.9158 176.301 25.9158C178.692 25.9158 180.054 25.0826 181.147 24.4141L181.152 24.411C181.368 24.2773 181.443 23.998 181.323 23.7744L180.887 22.9627C180.822 22.8417 180.707 22.7549 180.574 22.7236C180.439 22.693 180.299 22.7222 180.188 22.8024C178.98 23.6776 177.765 24.083 176.364 24.083C173.288 24.083 171.18 21.7065 171.007 18.1179H181.461C181.694 18.1179 181.895 17.9487 181.933 17.7167C182 17.304 182 16.9665 182 16.6399C182 12.044 179.731 9.29967 175.927 9.29967ZM171.054 16.2866C171.485 13.2249 173.435 11.1305 175.927 11.1305C178.506 11.1305 179.979 12.9565 180.105 16.2866H171.054Z" fill="#282955"/>
</svg>
